<?xml version="1.0" encoding="iso-8859-1"?>
<!-- Generator: Adobe Illustrator 19.0.0, SVG Export Plug-In . SVG Version: 6.00 Build 0)  -->
<svg version="1.1" id="Layer_1" xmlns="http://www.w3.org/2000/svg" xmlns:xlink="http://www.w3.org/1999/xlink" x="0px" y="0px"
	 viewBox="0 0 512 512" style="enable-background:new 0 0 512 512;" xml:space="preserve">
<circle style="fill:#263A7A;" cx="256" cy="256" r="256"/>
<path style="fill:#121149;" d="M287.546,510.064C406.25,495.475,499.802,399.636,510.881,279.88L369.778,138.774l-6.218,9.297
	l-28.26-28.26l-39.326,64.322l26.045,26.045l-10.278,15.365l3.22,3.22l-5.477,4.437l-113.39-113.39l-21.549,39.507L275.758,260.53
	L144.424,366.942L287.546,510.064z"/>
<path style="fill:#FEE187;" d="M150.769,369.778h210.46c4.722,0,8.547-3.827,8.547-8.547v-162.12H142.22v162.12
	C142.222,365.951,146.049,369.778,150.769,369.778z"/>
<g>
	<path style="fill:#FFC61B;" d="M256,199.111v170.667h105.229c4.722,0,8.547-3.827,8.547-8.547v-162.12H256z"/>
	<rect x="142.222" y="138.774" style="fill:#FFC61B;" width="227.556" height="63.785"/>
</g>
<rect x="256" y="138.774" style="fill:#EAA22F;" width="113.778" height="63.785"/>
<rect x="173.684" y="119.811" style="fill:#FF5419;" width="22.411" height="44.822"/>
<rect x="312.889" y="119.811" style="fill:#C92F00;" width="22.411" height="44.822"/>
<path style="fill:#FF5419;" d="M233.158,313.966c-2.426,0-4.853-0.926-6.704-2.777l-22.842-22.842
	c-3.703-3.701-3.703-9.706,0-13.407c3.699-3.703,9.707-3.703,13.407,0l16.137,16.136l61.821-61.819
	c3.699-3.703,9.707-3.703,13.407,0c3.703,3.701,3.703,9.706,0,13.407l-68.525,68.525
	C238.011,313.041,235.584,313.966,233.158,313.966z"/>
<path style="fill:#C92F00;" d="M308.388,229.255c-3.699-3.703-9.707-3.703-13.407,0l-38.979,38.978v26.815l52.386-52.386
	C312.091,238.961,312.091,232.958,308.388,229.255z"/>
<g>
</g>
<g>
</g>
<g>
</g>
<g>
</g>
<g>
</g>
<g>
</g>
<g>
</g>
<g>
</g>
<g>
</g>
<g>
</g>
<g>
</g>
<g>
</g>
<g>
</g>
<g>
</g>
<g>
</g>
</svg>
